<svg width="124" height="95" viewBox="0 0 124 95" fill="none" xmlns="http://www.w3.org/2000/svg">
<path d="M5.00092 44.2228C5.0712 39.8051 8.70928 36.2847 13.1269 36.3598C16.3464 36.4146 19.088 38.3653 20.3126 41.1287C25.0086 41.5835 29.3979 42.2619 33.5786 43.2093L35.8771 43.2479C41.0247 42.3185 45.8346 40.8995 50.532 38.9086C60.3134 34.7629 69.7094 28.0971 80.7325 18.0124L77.3849 12.5346L93.1632 7.8264L85.5417 25.8786L82.1465 20.3257C70.899 30.6263 61.1411 37.5934 50.8796 41.9425C49.6078 42.4815 48.3294 42.9787 47.0415 43.4377L100.735 44.3511L108.009 37.314L116.53 46.1207L107.733 54.6322L100.687 47.3507L44.2415 46.3908C46.5648 47.2666 48.8449 48.2523 51.1007 49.3636C61.4994 54.4863 71.3069 62.177 82.5775 73.318L86.0921 67.8439L93.1636 86.2213L77.6462 81.0048L81.1138 75.5993C70.0476 64.6697 60.5705 57.2777 50.6165 52.3741C45.5153 49.8611 40.2638 47.9915 34.5819 46.6396C30.0588 47.3922 25.3051 47.7841 20.1901 47.8727C18.8709 50.5732 16.0778 52.4123 12.8726 52.3578C8.45505 52.2826 4.93076 48.6404 5.00092 44.2228Z" fill="#A1ACBF"/>
<path d="M5.00092 44.2228L0.00167702 44.1359L0.00167481 44.1361L5.00092 44.2228ZM13.1269 36.3598L13.2047 31.3604L13.2046 31.3604L13.1269 36.3598ZM20.3126 41.1287L15.742 43.149L16.9273 45.8236L19.8379 46.1055L20.3126 41.1287ZM33.5786 43.2093L32.4804 48.0857L32.985 48.2001L33.5021 48.2087L33.5786 43.2093ZM35.8771 43.2479L35.8006 48.2473L36.2904 48.2555L36.7724 48.1685L35.8771 43.2479ZM50.532 38.9086L52.4887 43.5128L52.4888 43.5128L50.532 38.9086ZM80.7325 18.0124L84.1103 21.7039L87.1467 18.926L84.9977 15.4095L80.7325 18.0124ZM77.3849 12.5346L75.9489 7.74308L69.7342 9.59754L73.1198 15.1375L77.3849 12.5346ZM93.1632 7.8264L97.7697 9.77701L101.897 7.27911e-07L91.7271 3.03485L93.1632 7.8264ZM85.5417 25.8786L81.2772 28.4824L86.3617 36.7982L90.1483 27.8292L85.5417 25.8786ZM82.1465 20.3257L86.4111 17.7219L83.2415 12.538L78.7669 16.6359L82.1465 20.3257ZM50.8796 41.9425L52.8363 46.5467L52.8363 46.5467L50.8796 41.9425ZM47.0415 43.4377L45.3572 38.7273L46.9638 48.4371L47.0415 43.4377ZM100.735 44.3511L100.657 49.3505L102.727 49.3857L104.214 47.9473L100.735 44.3511ZM108.009 37.314L111.599 33.8398L108.12 30.244L104.529 33.7179L108.009 37.314ZM116.53 46.1207L120.009 49.7167L123.6 46.2425L120.12 42.6465L116.53 46.1207ZM107.733 54.6322L104.142 58.1065L107.622 61.7023L111.212 58.2281L107.733 54.6322ZM100.687 47.3507L104.278 43.8764L102.836 42.3866L100.765 42.3513L100.687 47.3507ZM44.2415 46.3908L44.3192 41.3913L42.484 51.0692L44.2415 46.3908ZM51.1007 49.3636L53.3048 44.8788L53.3048 44.8788L51.1007 49.3636ZM82.5775 73.318L79.0653 76.8716L83.4555 81.2113L86.786 76.0239L82.5775 73.318ZM86.0921 67.8439L90.7581 66.0542L87.212 56.8388L81.8836 65.138L86.0921 67.8439ZM93.1636 86.2213L91.5768 90.9606L101.644 94.3449L97.8296 84.4315L93.1636 86.2213ZM77.6462 81.0048L73.4367 78.3006L69.9741 83.6985L76.0593 85.7441L77.6462 81.0048ZM81.1138 75.5993L85.3233 78.3035L87.5102 74.8943L84.6244 72.0442L81.1138 75.5993ZM50.6165 52.3741L52.8206 47.8893L52.8206 47.8892L50.6165 52.3741ZM34.5819 46.6396L35.7324 41.7754L34.7499 41.5416L33.7543 41.7073L34.5819 46.6396ZM20.1901 47.8727L20.0961 42.8733L17.0385 42.9263L15.697 45.6726L20.1901 47.8727ZM12.8726 52.3578L12.7949 57.3572L12.795 57.3572L12.8726 52.3578ZM5.00092 44.2228L10.0002 44.3097C10.0265 42.6522 11.3921 41.331 13.0492 41.3592L13.1269 36.3598L13.2046 31.3604C6.0265 31.2383 0.115868 36.958 0.00167702 44.1359L5.00092 44.2228ZM13.1269 36.3598L13.0492 41.3592C14.2448 41.3796 15.2767 42.0991 15.742 43.149L20.3126 41.1287L24.8832 39.1084C22.8992 34.6314 18.4481 31.4497 13.2047 31.3604L13.1269 36.3598ZM20.3126 41.1287L19.8379 46.1055C24.3565 46.5432 28.5347 47.1915 32.4804 48.0857L33.5786 43.2093L34.6768 38.3329C30.2611 37.3322 25.6606 36.6239 20.7873 36.1519L20.3126 41.1287ZM33.5786 43.2093L33.5021 48.2087L35.8006 48.2473L35.8771 43.2479L35.9535 38.2484L33.655 38.2099L33.5786 43.2093ZM35.8771 43.2479L36.7724 48.1685C42.2704 47.1759 47.4375 45.6536 52.4887 43.5128L50.532 38.9086L48.5753 34.3044C44.2316 36.1453 39.7789 37.4612 34.9818 38.3272L35.8771 43.2479ZM50.532 38.9086L52.4888 43.5128C62.9984 39.0585 72.874 31.9837 84.1103 21.7039L80.7325 18.0124L77.3547 14.3209C66.5448 24.2106 57.6285 30.4674 48.5753 34.3044L50.532 38.9086ZM80.7325 18.0124L84.9977 15.4095L81.6501 9.93176L77.3849 12.5346L73.1198 15.1375L76.4673 20.6152L80.7325 18.0124ZM77.3849 12.5346L78.821 17.3262L94.5992 12.6179L93.1632 7.8264L91.7271 3.03485L75.9489 7.74308L77.3849 12.5346ZM93.1632 7.8264L88.5566 5.87579L80.9352 23.928L85.5417 25.8786L90.1483 27.8292L97.7697 9.77701L93.1632 7.8264ZM85.5417 25.8786L89.8063 23.2747L86.4111 17.7219L82.1465 20.3257L77.882 22.9296L81.2772 28.4824L85.5417 25.8786ZM82.1465 20.3257L78.7669 16.6359C67.7319 26.7419 58.4544 33.2986 48.9228 37.3383L50.8796 41.9425L52.8363 46.5467C63.8278 41.8882 74.0661 34.5108 85.5262 24.0155L82.1465 20.3257ZM50.8796 41.9425L48.9229 37.3383C47.7423 37.8387 46.5549 38.3005 45.3572 38.7273L47.0415 43.4377L48.7258 48.148C50.104 47.6569 51.4732 47.1244 52.8363 46.5467L50.8796 41.9425ZM47.0415 43.4377L46.9638 48.4371L100.657 49.3505L100.735 44.3511L100.813 39.3517L47.1192 38.4382L47.0415 43.4377ZM100.735 44.3511L104.214 47.9473L111.488 40.9102L108.009 37.314L104.529 33.7179L97.2557 40.755L100.735 44.3511ZM108.009 37.314L104.418 40.7883L112.939 49.595L116.53 46.1207L120.12 42.6465L111.599 33.8398L108.009 37.314ZM116.53 46.1207L113.05 42.5248L104.254 51.0362L107.733 54.6322L111.212 58.2281L120.009 49.7167L116.53 46.1207ZM107.733 54.6322L111.324 51.1579L104.278 43.8764L100.687 47.3507L97.0968 50.825L104.142 58.1065L107.733 54.6322ZM100.687 47.3507L100.765 42.3513L44.3192 41.3913L44.2415 46.3908L44.1638 51.3902L100.61 52.3501L100.687 47.3507ZM44.2415 46.3908L42.484 51.0692C44.6577 51.8886 46.7887 52.81 48.8966 53.8484L51.1007 49.3636L53.3048 44.8788C50.9012 43.6947 48.4719 42.6445 45.9991 41.7123L44.2415 46.3908ZM51.1007 49.3636L48.8965 53.8484C58.6211 58.639 67.9895 65.9231 79.0653 76.8716L82.5775 73.318L86.0897 69.7645C74.6244 58.431 64.3777 50.3336 53.3048 44.8788L51.1007 49.3636ZM82.5775 73.318L86.786 76.0239L90.3006 70.5498L86.0921 67.8439L81.8836 65.138L78.3691 70.6122L82.5775 73.318ZM86.0921 67.8439L81.4261 69.6337L88.4977 88.0111L93.1636 86.2213L97.8296 84.4315L90.7581 66.0542L86.0921 67.8439ZM93.1636 86.2213L94.7505 81.482L79.233 76.2656L77.6462 81.0048L76.0593 85.7441L91.5768 90.9606L93.1636 86.2213ZM77.6462 81.0048L81.8557 83.7091L85.3233 78.3035L81.1138 75.5993L76.9042 72.895L73.4367 78.3006L77.6462 81.0048ZM81.1138 75.5993L84.6244 72.0442C73.363 60.9217 63.4473 53.1243 52.8206 47.8893L50.6165 52.3741L48.4123 56.8589C57.6936 61.4311 66.7322 68.4176 77.6031 79.1543L81.1138 75.5993ZM50.6165 52.3741L52.8206 47.8892C47.3681 45.2032 41.7616 43.2098 35.7324 41.7754L34.5819 46.6396L33.4315 51.5039C38.7661 52.7731 43.6624 54.5189 48.4124 56.8589L50.6165 52.3741ZM34.5819 46.6396L33.7543 41.7073C29.5142 42.4128 25.01 42.7882 20.0961 42.8733L20.1901 47.8727L20.284 52.8721C25.6002 52.78 30.6034 52.3717 35.4096 51.572L34.5819 46.6396ZM20.1901 47.8727L15.697 45.6726C15.1955 46.6992 14.1428 47.3787 12.9502 47.3584L12.8726 52.3578L12.795 57.3572C18.0128 57.4459 22.5463 54.4473 24.6832 50.0728L20.1901 47.8727ZM12.8726 52.3578L12.9503 47.3584C11.2944 47.3302 9.97387 45.9655 10.0002 44.3096L5.00092 44.2228L0.00167481 44.1361C-0.11234 51.3154 5.61564 57.235 12.7949 57.3572L12.8726 52.3578Z" fill="#A1ACBF"/>
</svg>
